<svg width="197" height="70" viewBox="0 0 197 70" fill="none" xmlns="http://www.w3.org/2000/svg">
<g clip-path="url(#clip0_3_4)">
<path fill-rule="evenodd" clip-rule="evenodd" d="M57.6864 52.3522C57.4127 51.9428 57.5952 36.1598 57.5952 36.1598L45.9667 27.4269L41.1329 29.1098L41.2241 16.1014L30.0972 6.04939L25.6283 8.27811L20.3384 3.00195L15.1854 11.5984L12.3125 11.6894L12.2213 54.1261L14.9118 52.3522V13.6907H17.0551L21.2049 6.54971L24.6706 9.77908V34.9318L26.4947 35.0227V9.7336L29.3676 8.23262V35.5686L45.4195 29.6556V44.3015L54.8134 53.0344L57.6864 52.3522Z" fill="#939598"/>
<path fill-rule="evenodd" clip-rule="evenodd" d="M0 52.2157V54.7173L15.3678 54.5354L32.9701 39.6621L56.1359 61.0396H197L189.02 52.5341L62.2009 52.3522L54.0838 44.6199L32.6965 36.6602L14.8662 52.3522L0 52.2157Z" fill="#ED1C24"/>
<path fill-rule="evenodd" clip-rule="evenodd" d="M37.6671 58.2651V62.5406H32.8789V58.2651H37.6671ZM32.8789 53.4438H37.6671V57.7193H32.8789V53.4438ZM32.2861 58.2651V62.5406H27.4979V58.2651H32.2861ZM27.4979 53.4438H32.2861V57.7193H27.4979V53.4438Z" fill="#939598"/>
<path d="M133.796 21.1046C133.796 21.6959 133.887 22.2417 134.115 22.6966C134.343 23.1514 134.662 23.5607 135.073 23.8791H130.695V16.5107C130.695 15.5555 130.604 14.8278 130.467 14.282C130.33 13.7362 130.102 13.2813 129.783 12.872C129.327 12.3262 128.78 11.8713 128.004 11.5529C127.275 11.2346 126.454 11.0526 125.633 11.0526C124.128 11.0526 122.897 11.5529 121.894 12.5536C120.89 13.5542 120.389 14.7823 120.389 16.2833C120.389 17.9662 120.982 19.3762 122.076 20.4678C123.216 21.6049 124.63 22.1507 126.317 22.1507C126.819 22.1507 127.366 22.1053 127.913 21.9688C128.506 21.8778 129.099 21.6959 129.783 21.4685L127.776 24.1066C127.32 24.152 126.956 24.1975 126.591 24.243C126.272 24.2885 125.952 24.2885 125.633 24.2885C122.943 24.2885 120.845 23.6062 119.249 22.1962C117.653 20.7862 116.878 18.9214 116.878 16.6017C116.878 14.4639 117.698 12.6901 119.294 11.1891C120.89 9.6881 122.851 8.96036 125.086 8.96036C126.089 8.96036 127.001 9.09681 127.913 9.4152C128.825 9.6881 129.737 10.1429 130.604 10.7342V6.04938C130.604 5.18518 130.512 4.50292 130.33 4.04808C130.148 3.59324 129.828 3.22936 129.418 2.86549H129.828C130.239 2.86549 130.695 2.82001 131.288 2.77452C131.881 2.72904 132.656 2.63807 133.705 2.50162V21.1046H133.796ZM102.285 21.1956C102.285 21.8324 102.376 22.3782 102.559 22.7875C102.741 23.1969 103.06 23.6062 103.425 23.9246H97.9528C98.3632 23.6062 98.6824 23.2424 98.8192 22.7875C99.0016 22.3782 99.0928 21.8324 99.0928 21.1956V12.0988C99.0928 11.462 99.0016 10.9162 98.8192 10.4613C98.6368 10.0065 98.3176 9.64262 97.9528 9.32423H98.3176C98.8648 9.32423 99.4576 9.27875 100.05 9.23326C100.643 9.18778 101.327 9.09681 102.057 9.00584L102.194 11.3255C103.015 10.5068 103.881 9.91552 104.702 9.55165C105.568 9.18778 106.435 9.00584 107.392 9.00584C109.216 9.00584 110.676 9.50617 111.816 10.5068C112.956 11.5075 113.503 12.781 113.503 14.373V21.2411C113.503 21.8778 113.594 22.4236 113.777 22.833C113.959 23.2424 114.233 23.6517 114.643 23.9701H109.125C109.536 23.6517 109.855 23.2878 110.037 22.833C110.22 22.4236 110.311 21.8778 110.311 21.2411V15.9649C110.311 14.373 109.992 13.2359 109.353 12.5081C108.715 11.7804 107.712 11.4165 106.298 11.4165C104.839 11.4165 103.835 11.7349 103.197 12.4171C102.559 13.0994 102.239 14.191 102.239 15.7375V21.1956H102.285ZM96.3567 21.9233L94.943 23.8791C93.3014 23.8791 92.1157 23.6062 91.3861 23.0604C90.6565 22.5146 90.3372 21.6504 90.3372 20.3769V16.0559C90.1548 16.1014 89.8812 16.1468 89.5164 16.2378C85.3666 17.2385 83.3146 18.3301 83.3146 19.5127C83.3146 20.2859 83.6794 20.8772 84.3634 21.3775C85.0474 21.8324 85.9595 22.1053 87.0995 22.1053C87.4187 22.1053 87.7835 22.0598 88.194 22.0143C88.6044 21.9688 89.0604 21.8778 89.562 21.7869L87.6923 24.0156C87.2819 24.1066 86.9171 24.152 86.5523 24.1975C86.2331 24.243 85.8683 24.243 85.549 24.243C83.9074 24.243 82.5393 23.7882 81.4449 22.924C80.3504 22.0598 79.8488 20.9682 79.8488 19.6491C79.8488 19.1488 79.94 18.694 80.168 18.2391C80.3504 17.7843 80.6696 17.3749 81.0345 17.011C81.7185 16.3743 83.2234 15.8739 85.5034 15.3736C85.9595 15.2826 86.3243 15.1917 86.5979 15.1462C88.1483 14.8278 89.1516 14.5549 89.6076 14.2365C90.1092 13.9636 90.3372 13.5542 90.3372 13.0539C90.3372 12.4171 90.018 11.9168 89.334 11.5529C88.65 11.1891 87.7835 11.0071 86.6435 11.0071C86.0507 11.0071 85.4122 11.0981 84.6826 11.28C83.953 11.462 83.1777 11.7349 82.3113 12.1442L84.5002 9.00584C85.093 8.91487 85.5946 8.86939 86.0963 8.8239C86.5979 8.77842 87.0539 8.77842 87.5099 8.77842C88.3308 8.77842 89.106 8.86939 89.79 9.05133C90.474 9.23326 91.0669 9.50617 91.6141 9.82455C92.2981 10.2794 92.7541 10.8252 93.0734 11.5075C93.347 12.1897 93.4838 13.2359 93.4838 14.6459V18.1481C93.4838 19.7856 93.6662 20.7862 94.0766 21.1501C94.3958 21.6049 95.171 21.8324 96.3567 21.9233ZM63.0217 23.9246C63.5233 23.5153 63.8426 23.0604 64.0706 22.5601C64.2986 22.0598 64.3898 21.2865 64.3898 20.2404V6.77712C64.3898 5.73099 64.2986 4.95776 64.0706 4.45743C63.8426 3.95711 63.5233 3.50227 63.0217 3.13839H69.406C68.9044 3.54775 68.5396 3.95711 68.3571 4.45743C68.1291 4.95776 68.0379 5.73099 68.0379 6.77712V21.2411C68.95 21.3775 69.7708 21.4685 70.4548 21.514C71.1845 21.5594 71.7773 21.6049 72.3245 21.6049C73.5102 21.6049 74.6046 21.4685 75.6534 21.1956C76.7023 20.9227 77.7511 20.4678 78.7544 19.8765L77.1127 23.9701H63.0217V23.9246Z" fill="#315498"/>
<path d="M146.747 49.0773L145.424 45.757C146.701 46.5302 147.841 47.076 148.936 47.4399C150.03 47.8038 151.033 47.9857 151.991 47.9857C153.177 47.9857 154.134 47.7583 154.864 47.3489C155.594 46.9396 155.958 46.3938 155.958 45.7115C155.958 44.8473 154.727 43.9831 152.31 43.1189C151.717 42.8915 151.261 42.755 150.942 42.6186C149.483 42.0728 148.48 41.4815 147.796 40.7992C147.157 40.117 146.838 39.3437 146.838 38.4795C146.838 37.206 147.431 36.1599 148.525 35.3866C149.665 34.6134 151.216 34.2495 153.177 34.2495C153.815 34.2495 154.499 34.295 155.274 34.386C156.05 34.4769 156.825 34.6134 157.646 34.7498V37.3424C156.779 36.9786 155.958 36.6602 155.183 36.4782C154.362 36.2963 153.587 36.1599 152.857 36.1599C151.991 36.1599 151.353 36.3418 150.851 36.6602C150.349 36.9786 150.076 37.4334 150.076 37.9792C150.076 38.7524 151.079 39.4802 153.131 40.117C153.997 40.3899 154.681 40.6173 155.183 40.8447C156.642 41.3905 157.691 41.9818 158.375 42.6641C159.059 43.3463 159.378 44.0741 159.378 44.9383C159.378 46.4393 158.649 47.6218 157.235 48.5315C155.776 49.4412 153.861 49.896 151.444 49.896C150.577 49.896 149.756 49.8051 148.981 49.6686C148.16 49.5777 147.431 49.3502 146.747 49.0773ZM130.832 41.7544C130.923 43.5738 131.561 45.0293 132.747 46.0754C133.978 47.167 135.529 47.6673 137.49 47.6673C138.356 47.6673 139.268 47.5309 140.226 47.3035C141.183 47.0305 142.232 46.6667 143.372 46.1209L141.548 48.9409C140.591 49.2593 139.678 49.4867 138.858 49.6686C138.037 49.8051 137.216 49.896 136.486 49.896C133.796 49.896 131.561 49.1683 129.783 47.6673C128.05 46.2118 127.138 44.347 127.138 42.0728C127.138 39.7531 127.959 37.8428 129.555 36.3873C131.151 34.8863 133.203 34.1586 135.711 34.1586C138.037 34.1586 139.861 34.8408 141.229 36.2053C142.597 37.5699 143.281 39.3892 143.327 41.7544H130.832ZM131.06 39.6621H139.724C139.633 38.616 139.222 37.7973 138.447 37.115C137.672 36.4782 136.714 36.1144 135.529 36.1144C134.297 36.1144 133.249 36.4328 132.473 37.0695C131.698 37.7518 131.242 38.5705 131.06 39.6621ZM123.581 46.5757C123.581 47.167 123.672 47.7128 123.9 48.1677C124.128 48.6225 124.447 49.0318 124.858 49.3502H120.48V41.9363C120.48 40.9812 120.389 40.2534 120.252 39.7076C120.115 39.1618 119.887 38.707 119.568 38.2976C119.112 37.7518 118.565 37.297 117.79 36.9786C117.06 36.6602 116.239 36.4782 115.418 36.4782C113.913 36.4782 112.682 36.9786 111.679 37.9792C110.676 38.9799 110.174 40.2079 110.174 41.7089C110.174 43.3918 110.767 44.8018 111.861 45.8934C113.001 47.0306 114.415 47.5764 116.102 47.5764C116.604 47.5764 117.151 47.5309 117.698 47.3944C118.291 47.3035 118.884 47.1215 119.568 46.8941L117.562 49.5322C117.106 49.5777 116.741 49.6231 116.376 49.6686C116.057 49.7141 115.738 49.7141 115.418 49.7141C112.728 49.7141 110.63 49.0318 109.034 47.6218C107.438 46.2118 106.663 44.347 106.663 42.0273C106.663 39.8895 107.484 38.1157 109.08 36.6147C110.676 35.1137 112.637 34.386 114.871 34.386C115.874 34.386 116.786 34.5224 117.698 34.8408C118.61 35.1137 119.522 35.5686 120.389 36.1599V31.5205C120.389 30.6563 120.298 29.974 120.115 29.5192C119.933 29.0643 119.614 28.7005 119.203 28.3366H119.614C120.024 28.3366 120.48 28.2911 121.073 28.2456C121.666 28.2001 122.441 28.1092 123.49 27.9727V46.5757H123.581ZM105.249 47.3489L103.835 49.3048C102.194 49.3048 101.008 49.0318 100.278 48.486C99.5489 47.9402 99.2296 47.076 99.2296 45.8025V41.4815C99.0472 41.527 98.7736 41.5725 98.4088 41.6634C94.259 42.6641 92.207 43.7557 92.207 44.9383C92.207 45.7115 92.5718 46.3028 93.2558 46.8031C93.9398 47.258 94.8519 47.5309 95.9919 47.5309C96.3111 47.5309 96.6759 47.4854 97.0863 47.4399C97.4968 47.3944 97.9528 47.3035 98.4544 47.2125L96.5847 49.4412C96.1743 49.5322 95.8095 49.5777 95.4447 49.6231C95.1255 49.6686 94.7607 49.6686 94.4414 49.6686C92.7998 49.6686 91.4317 49.2138 90.3373 48.3496C89.2428 47.4854 88.7412 46.3938 88.7412 45.0747C88.7412 44.5744 88.8324 44.1196 89.0604 43.6647C89.2428 43.2099 89.562 42.8005 89.9269 42.4367C90.6109 41.7999 92.1158 41.2996 94.3958 40.7992C94.8519 40.7083 95.2167 40.6173 95.4903 40.5718C97.0407 40.2534 98.044 39.9805 98.5 39.6621C99.0016 39.3892 99.2296 38.9799 99.2296 38.4795C99.2296 37.8428 98.9104 37.3424 98.2264 36.9786C97.5424 36.6147 96.6759 36.4328 95.5359 36.4328C94.9431 36.4328 94.3046 36.5237 93.575 36.7057C92.8454 36.8876 92.0702 37.1605 91.2037 37.5699L93.3926 34.4315C93.9854 34.3405 94.487 34.295 94.9887 34.2495C95.4903 34.204 95.9463 34.204 96.4023 34.204C97.2232 34.204 97.9984 34.295 98.6824 34.4769C99.3664 34.6589 99.9593 34.9318 100.506 35.2502C101.191 35.705 101.647 36.2508 101.966 36.9331C102.239 37.6153 102.376 38.6615 102.376 40.0715V43.6647C102.376 45.3022 102.559 46.3028 102.969 46.6667C103.288 47.0305 104.063 47.258 105.249 47.3489ZM86.8715 37.5244C86.5979 37.3424 86.3699 37.2515 86.0963 37.1605C85.8227 37.0695 85.5491 37.0695 85.2299 37.0695C84.0442 37.0695 83.1322 37.4334 82.5394 38.1612C81.9009 38.8889 81.6273 39.8895 81.6273 41.2541V46.7122C81.6273 47.3489 81.7185 47.8947 81.9009 48.3041C82.0833 48.7135 82.4026 49.1228 82.7674 49.4412H77.2951C77.7056 49.1228 78.0248 48.7589 78.1616 48.3041C78.344 47.8947 78.4352 47.3489 78.4352 46.7122V37.6153C78.4352 36.9786 78.344 36.4328 78.1616 35.9779C77.9792 35.5231 77.66 35.1592 77.2951 34.8408H77.66C78.2072 34.8408 78.8 34.7953 79.3928 34.7498C79.9857 34.7044 80.6697 34.6134 81.3993 34.5224L81.6729 36.8421C82.1746 36.0689 82.7218 35.4776 83.3602 35.1137C83.9986 34.7498 84.7283 34.5679 85.5491 34.5679C85.7315 34.5679 85.9595 34.5679 86.1875 34.6134C86.4155 34.6134 86.6435 34.6589 86.9627 34.7498V37.5244H86.8715ZM72.0965 45.7115C72.0965 46.7576 72.1877 47.5309 72.4158 48.0312C72.6438 48.5315 72.963 48.9864 73.4646 49.3957H67.0803C67.582 48.9864 67.9468 48.5315 68.1292 48.0312C68.3572 47.5309 68.4484 46.7576 68.4484 45.7115V30.8382H66.5787C65.3019 30.8382 64.253 30.9292 63.4322 31.1111C62.6114 31.2931 61.9729 31.566 61.5169 31.9753L62.657 28.564H79.256L78.1616 31.9298C77.7968 31.566 77.3407 31.2931 76.7935 31.1111C76.2463 30.9292 75.5167 30.8382 74.6502 30.8382H72.0509V45.7115H72.0965Z" fill="#315498"/>
<path d="M62.0641 69.8181V63.4048H64.9371C65.6667 63.4048 66.2139 63.5413 66.5787 63.8142C66.9435 64.0871 67.1259 64.4509 67.1259 64.9967C67.1259 65.3151 67.0347 65.6335 66.8523 65.8609C66.6699 66.0884 66.4419 66.2703 66.0771 66.4068C66.4875 66.4977 66.8523 66.6342 67.0804 66.9071C67.3084 67.18 67.4452 67.4984 67.4452 67.9532C67.4452 68.5445 67.2172 68.9993 66.8067 69.3632C66.3963 69.7271 65.8035 69.8635 65.0283 69.8635H62.0641V69.8181ZM63.0218 66.1338H64.709C65.2107 66.1338 65.5755 66.0429 65.8035 65.9064C66.0315 65.7245 66.1683 65.4971 66.1683 65.1332C66.1683 64.8148 66.0771 64.5874 65.8491 64.4055C65.6211 64.269 65.2563 64.178 64.8003 64.178H63.0218V66.1338ZM63.0218 69.0448H64.9827C65.4843 69.0448 65.8491 68.9539 66.1227 68.7719C66.3963 68.59 66.4875 68.2716 66.4875 67.9077C66.4875 67.5439 66.3507 67.271 66.0771 67.089C65.8035 66.9071 65.3931 66.8161 64.8459 66.8161H62.9762V69.0448H63.0218ZM68.5852 67.4074V63.4503H69.5428V67.4074C69.5428 67.9987 69.6797 68.4535 69.9989 68.7264C70.2725 68.9994 70.7741 69.1358 71.3669 69.1358C71.9597 69.1358 72.4158 68.9993 72.735 68.681C73.0542 68.4081 73.191 67.9532 73.191 67.3619V63.4048H74.1486V67.3619C74.1486 68.2261 73.9206 68.8629 73.419 69.3177C72.9174 69.7726 72.1878 69.9545 71.2301 69.9545C70.3181 69.9545 69.6797 69.7271 69.2236 69.3177C68.8132 68.9084 68.5852 68.2716 68.5852 67.4074ZM75.6535 69.8181V63.4048H76.6111V69.8181H75.6535ZM78.2072 69.8181V63.4048H79.1648V68.9993H82.7218V69.8181H78.2072ZM86.1419 64.178H84.5003V69.0448H86.1419C86.8716 69.0448 87.3732 68.8174 87.738 68.4081C88.1028 67.9987 88.2852 67.3619 88.2852 66.5432C88.2852 65.77 88.1028 65.1787 87.738 64.7693C87.3732 64.36 86.8259 64.178 86.1419 64.178ZM83.497 69.8181V63.4048H86.1875C87.1908 63.4048 87.9204 63.6777 88.4676 64.2235C89.0148 64.7693 89.2428 65.5426 89.2428 66.5432C89.2428 67.5893 88.9692 68.4081 88.422 68.9539C87.8748 69.5452 87.0996 69.8181 86.1419 69.8181H83.497ZM90.5197 69.8181V63.4048H95.5815V64.178H91.4773V66.0884H95.2623V66.8161H91.4773V68.9539H95.6727V69.7726H90.5197V69.8181ZM97.7704 64.178V66.3613H99.4121C100.005 66.3613 100.415 66.2703 100.689 66.0884C100.917 65.9064 101.054 65.6335 101.054 65.2242C101.054 64.8603 100.917 64.5874 100.689 64.4055C100.461 64.269 100.005 64.178 99.4121 64.178H97.7704ZM96.8128 63.4048H99.5945C100.05 63.4048 100.37 63.4048 100.598 63.4503C100.826 63.4958 101.008 63.5413 101.145 63.6322C101.464 63.7687 101.692 63.9961 101.829 64.269C101.966 64.5419 102.057 64.8603 102.057 65.1787C102.057 65.5426 101.966 65.8155 101.829 66.0429C101.647 66.2703 101.419 66.4977 101.099 66.6342C101.373 66.7251 101.555 66.8161 101.692 66.9981C101.829 67.18 101.875 67.4529 101.92 67.8168L102.011 68.8629C102.011 69.0903 102.057 69.2723 102.103 69.3632C102.148 69.4542 102.239 69.5452 102.331 69.5906V69.7726H101.191C101.099 69.6361 101.054 69.3632 101.008 68.9084C101.008 68.9084 101.008 68.9084 101.008 68.8629L100.963 68.0442C100.917 67.6348 100.826 67.3164 100.643 67.2255C100.461 67.089 100.05 67.0435 99.3665 67.0435H97.816V69.7726H96.8584V63.4048H96.8128ZM103.06 67.7258H103.972C103.972 68.1806 104.155 68.5445 104.474 68.8174C104.793 69.0903 105.249 69.2268 105.796 69.2268C106.344 69.2268 106.8 69.1358 107.119 68.9084C107.438 68.681 107.575 68.4081 107.575 68.0442C107.575 67.5439 106.982 67.18 105.796 66.9071C105.705 66.9071 105.66 66.8616 105.614 66.8616C104.656 66.6342 104.018 66.4068 103.699 66.1793C103.379 65.9064 103.243 65.588 103.243 65.0877C103.243 64.4964 103.471 64.0416 103.927 63.7232C104.383 63.3593 105.021 63.2229 105.796 63.2229C106.572 63.2229 107.21 63.4048 107.666 63.7687C108.122 64.1326 108.35 64.6329 108.35 65.2697H107.438C107.392 64.8603 107.256 64.4964 106.936 64.269C106.663 64.0416 106.252 63.9051 105.751 63.9051C105.295 63.9051 104.884 63.9961 104.611 64.178C104.337 64.36 104.2 64.6329 104.2 64.9058C104.2 65.4061 104.793 65.77 105.979 65.9974C106.161 66.0429 106.298 66.0429 106.389 66.0884C106.389 66.0884 106.435 66.0884 106.48 66.0884C107.256 66.2703 107.757 66.4522 107.985 66.6342C108.168 66.7706 108.304 66.9526 108.441 67.18C108.532 67.4074 108.578 67.6348 108.578 67.8622C108.578 68.499 108.35 68.9539 107.848 69.3177C107.347 69.6816 106.708 69.8635 105.842 69.8635C104.975 69.8635 104.291 69.6816 103.835 69.2723C103.379 68.9994 103.106 68.4535 103.06 67.7258Z" fill="black"/>
<path d="M114.78 65.8609C115.099 65.679 115.373 65.4971 115.509 65.2697C115.692 65.0877 115.737 64.8603 115.737 64.6329C115.737 64.4055 115.646 64.2235 115.509 64.0871C115.373 63.9506 115.145 63.8596 114.871 63.8596C114.597 63.8596 114.369 63.9051 114.233 64.0416C114.05 64.178 114.005 64.36 114.005 64.5874C114.005 64.7693 114.05 64.9513 114.187 65.1332C114.324 65.4061 114.506 65.6335 114.78 65.8609ZM114.461 66.6797C114.005 66.9071 113.685 67.1345 113.503 67.3619C113.321 67.5893 113.229 67.8168 113.229 68.0897C113.229 68.4081 113.366 68.681 113.594 68.9084C113.822 69.1358 114.141 69.2268 114.552 69.2268C114.825 69.2268 115.099 69.1813 115.373 69.0448C115.646 68.9084 115.874 68.7264 116.148 68.499L114.461 66.6797ZM113.959 66.1338C113.685 65.8609 113.503 65.6335 113.366 65.4061C113.229 65.1787 113.184 64.9513 113.184 64.6784C113.184 64.269 113.321 63.9051 113.64 63.6322C113.959 63.3593 114.369 63.2229 114.871 63.2229C115.373 63.2229 115.829 63.3593 116.102 63.5867C116.422 63.8142 116.558 64.178 116.558 64.5874C116.558 64.9058 116.467 65.2242 116.239 65.4971C116.011 65.77 115.692 66.0429 115.236 66.2703L116.558 67.7258C116.65 67.5893 116.695 67.4529 116.741 67.271C116.786 67.089 116.832 66.9071 116.832 66.6797H117.653C117.653 66.9981 117.607 67.271 117.516 67.5439C117.425 67.8168 117.288 68.0897 117.106 68.3171L118.428 69.7726H117.242L116.558 68.9993C116.285 69.3177 115.965 69.5452 115.555 69.6816C115.19 69.8181 114.78 69.909 114.369 69.909C113.731 69.909 113.229 69.7271 112.819 69.4087C112.409 69.0448 112.226 68.6355 112.226 68.0897C112.226 67.6803 112.363 67.3164 112.637 66.998C112.956 66.7706 113.366 66.4522 113.959 66.1338Z" fill="black"/>
<path d="M124.311 64.178H122.669V69.0448H124.311C125.04 69.0448 125.542 68.8174 125.907 68.4081C126.272 67.9987 126.454 67.3619 126.454 66.5432C126.454 65.77 126.272 65.1787 125.907 64.7693C125.542 64.36 125.04 64.178 124.311 64.178ZM121.711 69.8181V63.4048H124.402C125.405 63.4048 126.135 63.6777 126.682 64.2235C127.229 64.7693 127.457 65.5426 127.457 66.5432C127.457 67.5893 127.184 68.4081 126.636 68.9539C126.089 69.5452 125.314 69.8181 124.356 69.8181H121.711ZM128.688 69.8181V63.4048H133.75V64.178H129.646V66.0884H133.431V66.8161H129.646V68.9539H133.841V69.7726H128.688V69.8181ZM136.806 69.8181L134.252 63.4048H135.255L137.307 68.7719L139.314 63.4048H140.317L137.809 69.8181H136.806ZM141.092 69.8181V63.4048H146.154V64.178H142.05V66.0884H145.835V66.8161H142.05V68.9539H146.245V69.7726H141.092V69.8181ZM147.431 69.8181V63.4048H148.388V68.9993H151.945V69.8181H147.431ZM153.04 66.6342C153.04 67.4529 153.268 68.0897 153.678 68.5445C154.089 68.9993 154.681 69.2268 155.411 69.2268C156.141 69.2268 156.734 68.9993 157.144 68.5445C157.554 68.0897 157.782 67.4529 157.782 66.6342C157.782 65.8155 157.554 65.1787 157.144 64.7238C156.734 64.269 156.141 64.0416 155.411 64.0416C154.681 64.0416 154.089 64.269 153.678 64.7238C153.268 65.1787 153.04 65.8155 153.04 66.6342ZM152.037 66.6342C152.037 65.588 152.356 64.7693 152.949 64.178C153.541 63.5867 154.362 63.2684 155.411 63.2684C156.46 63.2684 157.281 63.5867 157.874 64.178C158.466 64.7693 158.786 65.588 158.786 66.6342C158.786 67.6803 158.466 68.499 157.874 69.0903C157.281 69.6816 156.46 70 155.411 70C154.362 70 153.541 69.6816 152.949 69.0903C152.356 68.499 152.037 67.6803 152.037 66.6342ZM160.975 66.3613H162.616C163.163 66.3613 163.574 66.2703 163.802 66.1338C164.03 65.9519 164.121 65.679 164.121 65.3151C164.121 64.9513 164.03 64.6784 163.802 64.4964C163.574 64.3145 163.209 64.269 162.707 64.269H160.975V66.3613ZM160.017 69.8181V63.4048H162.616C163.027 63.4048 163.346 63.4048 163.574 63.4503C163.802 63.4958 163.984 63.5413 164.167 63.6322C164.44 63.7687 164.668 63.9961 164.851 64.269C164.988 64.5419 165.079 64.8603 165.079 65.2242C165.079 65.588 164.988 65.9064 164.851 66.1793C164.714 66.4522 164.486 66.6797 164.167 66.8161C163.984 66.9071 163.802 66.9526 163.574 66.9981C163.346 67.0435 162.981 67.0435 162.434 67.0435H160.975V69.7271H160.017V69.8181ZM166.264 69.8181V63.4048H171.326V64.178H167.222V66.0884H171.007V66.8161H167.222V68.9539H171.417V69.7726H166.264V69.8181ZM173.515 64.178V66.3613H175.157C175.75 66.3613 176.16 66.2703 176.434 66.0884C176.662 65.9064 176.798 65.6335 176.798 65.2242C176.798 64.8603 176.662 64.5874 176.434 64.4055C176.206 64.269 175.75 64.178 175.157 64.178H173.515ZM172.603 63.4048H175.385C175.841 63.4048 176.16 63.4048 176.388 63.4503C176.616 63.4958 176.798 63.5413 176.935 63.6322C177.254 63.7687 177.482 63.9961 177.619 64.269C177.756 64.5419 177.847 64.8603 177.847 65.1787C177.847 65.5426 177.756 65.8155 177.619 66.0429C177.437 66.2703 177.209 66.4977 176.89 66.6342C177.163 66.7251 177.346 66.8161 177.482 66.9981C177.619 67.18 177.665 67.4529 177.71 67.8168L177.802 68.8629C177.802 69.0903 177.847 69.2723 177.893 69.3632C177.938 69.4542 178.03 69.5452 178.121 69.5906V69.7726H176.935C176.844 69.6361 176.798 69.3632 176.753 68.9084C176.753 68.9084 176.753 68.9084 176.753 68.8629L176.707 68.0442C176.662 67.6348 176.57 67.3164 176.388 67.2255C176.206 67.089 175.795 67.0435 175.111 67.0435H173.561V69.7726H172.603V63.4048ZM178.85 67.7258H179.763C179.763 68.1806 179.945 68.5445 180.264 68.8174C180.583 69.0903 181.039 69.2268 181.587 69.2268C182.134 69.2268 182.59 69.1358 182.909 68.9084C183.228 68.681 183.365 68.4081 183.365 68.0442C183.365 67.5439 182.772 67.18 181.587 66.9071C181.495 66.9071 181.45 66.8616 181.404 66.8616C180.447 66.6342 179.808 66.4068 179.489 66.1793C179.17 65.9064 179.033 65.588 179.033 65.0877C179.033 64.4964 179.261 64.0416 179.717 63.7232C180.173 63.3593 180.811 63.2229 181.587 63.2229C182.362 63.2229 183 63.4048 183.456 63.7687C183.912 64.1326 184.14 64.6329 184.14 65.2697H183.228C183.183 64.8603 183.046 64.4964 182.727 64.269C182.453 64.0416 182.043 63.9051 181.541 63.9051C181.085 63.9051 180.675 63.9961 180.401 64.178C180.127 64.36 179.991 64.6329 179.991 64.9058C179.991 65.4061 180.583 65.77 181.769 65.9974C181.951 66.0429 182.088 66.0429 182.179 66.0884C182.179 66.0884 182.225 66.0884 182.271 66.0884C183.046 66.2703 183.547 66.4522 183.775 66.6342C183.958 66.7706 184.095 66.9526 184.232 67.18C184.323 67.4074 184.368 67.6348 184.368 67.8622C184.368 68.499 184.14 68.9539 183.639 69.3177C183.137 69.6816 182.499 69.8635 181.632 69.8635C180.766 69.8635 180.082 69.6816 179.626 69.2723C179.124 68.9994 178.85 68.4535 178.85 67.7258Z" fill="black"/>
<path d="M145.196 0C147.568 0 149.437 1.91033 149.437 4.2755C149.437 6.68616 147.568 8.59649 145.196 8.59649C142.871 8.59649 141.001 6.68616 141.001 4.2755C141.047 1.91033 142.916 0 145.196 0ZM145.196 7.95971C147.203 7.95971 148.753 6.36777 148.753 4.2755C148.753 2.22872 147.203 0.636777 145.196 0.636777C143.235 0.636777 141.731 2.22872 141.731 4.2755C141.731 6.36777 143.235 7.95971 145.196 7.95971ZM143.828 2.0013H145.47C146.291 2.0013 146.838 2.54711 146.838 3.36582C146.838 4.04808 146.382 4.45744 145.972 4.59389V4.63938C145.972 4.63938 146.017 4.68486 146.108 4.91228L147.02 6.64068H146.291L145.379 4.77583H144.467V6.64068H143.783V2.0013H143.828ZM145.333 4.23002C145.835 4.23002 146.154 3.91163 146.154 3.36582C146.154 2.8655 145.835 2.54711 145.333 2.54711H144.467V4.23002H145.333Z" fill="black"/>
</g>
<defs>
<clipPath id="clip0_3_4">
<rect width="197" height="70" fill="white"/>
</clipPath>
</defs>
</svg>
